<svg width="112" height="121" viewBox="0 0 112 121" fill="none" xmlns="http://www.w3.org/2000/svg">
<path d="M43.3738 99.9334C42.7672 102.742 39.9253 104.499 37.2507 103.45C27.1414 99.4844 18.4759 91.956 12.7443 82.0284C6.08617 70.4958 3.93247 56.6703 6.75702 43.5932C9.58158 30.5161 17.153 19.2586 27.8057 12.2974C37.0984 6.22484 48.0718 3.85546 58.8477 5.49516C61.5111 5.90043 63.1125 8.54701 62.5438 11.1803C61.9372 13.9885 59.1061 15.6851 56.2509 15.3665C48.0875 14.4558 39.856 16.4006 32.8266 20.9941C24.3045 26.5631 18.2473 35.569 15.9877 46.0307C13.728 56.4924 15.451 67.5528 20.7775 76.7789C25.2579 84.5393 31.9791 90.4671 39.8293 93.6936C42.3211 94.7177 43.9425 97.3001 43.3738 99.9334Z" fill="url(#paint0_linear_23_22)"/>
<path d="M58.8724 22.0071C78.6132 24.4302 94.7239 43.5509 94.8557 64.7114C94.9875 85.8718 79.0954 101.06 59.3546 98.637C39.6138 96.214 23.5031 77.0932 23.3683 55.9327C23.2335 34.7723 39.1316 19.5841 58.8724 22.0071Z" fill="#ECF6FF"/>
<path d="M58.8724 22.0071C78.6132 24.4302 94.7239 43.5509 94.8557 64.7114C94.9875 85.8718 79.0954 101.06 59.3546 98.637C39.6138 96.214 23.5031 77.0932 23.3683 55.9327C23.2335 34.7723 39.1316 19.5841 58.8724 22.0071Z" fill="url(#paint1_linear_23_22)"/>
<path d="M58.8724 22.0071C78.6132 24.4302 94.7239 43.5509 94.8557 64.7114C94.9875 85.8718 79.0954 101.06 59.3546 98.637C39.6138 96.214 23.5031 77.0932 23.3683 55.9327C23.2335 34.7723 39.1316 19.5841 58.8724 22.0071Z" fill="url(#paint2_radial_23_22)" fill-opacity="0.3"/>
<path fill-rule="evenodd" clip-rule="evenodd" d="M69.5861 47.4962C69.5442 41.2424 64.785 35.5936 58.9535 34.8778H58.9565C53.122 34.162 48.4256 38.6516 48.4646 44.9024C48.5035 51.1532 53.2628 56.802 59.0972 57.5178C64.9287 58.2336 69.6251 53.747 69.5861 47.4962ZM80.0391 80.2449C78.0623 69.5583 69.4154 60.6179 59.1062 59.351H59.1032C48.791 58.0841 40.249 64.9159 38.401 75.1323C37.9966 77.3666 39.6589 79.6878 41.8304 79.9544L76.6636 84.2314C78.835 84.498 80.4733 82.5811 80.0391 80.2449Z" fill="#2E86FE"/>
<path fill-rule="evenodd" clip-rule="evenodd" d="M69.5861 47.4962C69.5442 41.2424 64.785 35.5936 58.9535 34.8778H58.9565C53.122 34.162 48.4256 38.6516 48.4646 44.9024C48.5035 51.1532 53.2628 56.802 59.0972 57.5178C64.9287 58.2336 69.6251 53.747 69.5861 47.4962ZM80.0391 80.2449C78.0623 69.5583 69.4154 60.6179 59.1062 59.351H59.1032C48.791 58.0841 40.249 64.9159 38.401 75.1323C37.9966 77.3666 39.6589 79.6878 41.8304 79.9544L76.6636 84.2314C78.835 84.498 80.4733 82.5811 80.0391 80.2449Z" fill="url(#paint3_linear_23_22)"/>
<path d="M110.141 84.8432C112.152 87.1654 112.197 90.5437 110.247 92.3904L81.2517 119.748C80.3223 120.63 79.0241 121.042 77.6886 120.882C76.3532 120.721 75.0377 119.997 74.0798 118.889L59.7445 102.34C57.7342 100.018 57.6884 96.6395 59.6387 94.7928C60.6138 93.8694 61.9063 93.5045 63.2046 93.6593C64.5029 93.8141 65.8097 94.4914 66.8135 95.6526L77.5056 107.999L102.893 83.9834C103.868 83.0601 105.205 82.6527 106.503 82.8103C107.9 82.8103 109.288 83.8578 110.141 84.8432Z" fill="#3ADFD5"/>
<path d="M110.141 84.8432C112.152 87.1654 112.197 90.5437 110.247 92.3904L81.2517 119.748C80.3223 120.63 79.0241 121.042 77.6886 120.882C76.3532 120.721 75.0377 119.997 74.0798 118.889L59.7445 102.34C57.7342 100.018 57.6884 96.6395 59.6387 94.7928C60.6138 93.8694 61.9063 93.5045 63.2046 93.6593C64.5029 93.8141 65.8097 94.4914 66.8135 95.6526L77.5056 107.999L102.893 83.9834C103.868 83.0601 105.205 82.6527 106.503 82.8103C107.9 82.8103 109.288 83.8578 110.141 84.8432Z" fill="url(#paint4_radial_23_22)" fill-opacity="0.2"/>
<defs>
<linearGradient id="paint0_linear_23_22" x1="12.0654" y1="79.2729" x2="51.0714" y2="6.58218" gradientUnits="userSpaceOnUse">
<stop stop-color="#13B8FF" stop-opacity="0"/>
<stop offset="0.5" stop-color="#13B8FF"/>
<stop offset="1" stop-color="#4FD8D5"/>
</linearGradient>
<linearGradient id="paint1_linear_23_22" x1="126.005" y1="128.942" x2="-104.633" y2="34.339" gradientUnits="userSpaceOnUse">
<stop stop-color="#2353C7"/>
<stop offset="0.280719" stop-color="#DCEFFF"/>
<stop offset="0.442141" stop-color="#DCEFFF"/>
<stop offset="0.752483" stop-color="#2353C7"/>
</linearGradient>
<radialGradient id="paint2_radial_23_22" cx="0" cy="0" r="1" gradientUnits="userSpaceOnUse" gradientTransform="translate(80.0961 91.6682) rotate(159.001) scale(79.1241 58.5581)">
<stop stop-color="#2E86FE"/>
<stop offset="1" stop-color="#2E86FE" stop-opacity="0"/>
</radialGradient>
<linearGradient id="paint3_linear_23_22" x1="42.4406" y1="40.5459" x2="98.5003" y2="105.912" gradientUnits="userSpaceOnUse">
<stop stop-color="#60CFFF"/>
<stop offset="1" stop-color="#12AFFF" stop-opacity="0"/>
</linearGradient>
<radialGradient id="paint4_radial_23_22" cx="0" cy="0" r="1" gradientUnits="userSpaceOnUse" gradientTransform="translate(103.068 126.967) rotate(-172.045) scale(80.075 33.3367)">
<stop stop-color="#0C2780"/>
<stop offset="1" stop-color="#0C2780" stop-opacity="0"/>
</radialGradient>
</defs>
</svg>
