<svg width="138" height="137" viewBox="0 0 138 137" fill="none" xmlns="http://www.w3.org/2000/svg">
<path d="M118.816 65.5512C124.045 42.2371 110.908 19.4412 89.4735 14.6352C68.0388 9.82915 46.4232 24.8329 41.1938 48.147C35.9644 71.461 49.1014 94.2569 70.5362 99.0629C91.971 103.869 113.587 88.8653 118.816 65.5512Z" fill="url(#paint0_linear_9_572)"/>
<path d="M118.816 65.5512C124.045 42.2371 110.908 19.4412 89.4735 14.6352C68.0388 9.82915 46.4232 24.8329 41.1938 48.147C35.9644 71.461 49.1014 94.2569 70.5362 99.0629C91.971 103.869 113.587 88.8653 118.816 65.5512Z" fill="url(#paint1_radial_9_572)"/>
<path d="M89.5352 14.6333L94.5426 15.7566C113.861 20.088 127.074 39.504 124.702 61.4322C122.134 85.1588 102.292 102.839 80.3754 100.921C78.715 100.775 77.0884 100.522 75.5062 100.168L70.4988 99.0444C72.0836 99.3989 73.7076 99.6543 75.368 99.7976C97.2823 101.716 117.127 84.0329 119.694 60.309C122.066 38.3807 108.851 18.9621 89.5352 14.6333Z" fill="url(#paint2_linear_9_572)"/>
<path d="M82.7843 31.1482C95.8597 32.291 105.252 44.7417 103.721 58.8988C102.189 73.056 90.3049 83.6428 77.2296 82.5001C64.1542 81.3573 54.7617 68.9066 56.2933 54.7495C57.8248 40.5923 69.709 30.0029 82.7843 31.1482ZM77.5293 79.727C89.1925 80.7479 99.794 71.3038 101.16 58.6754C102.527 46.0469 94.1478 34.9421 82.4846 33.9238C70.8214 32.9055 60.2199 42.347 58.8535 54.9755C57.487 67.6039 65.8661 78.7087 77.5293 79.727Z" fill="url(#paint3_linear_9_572)"/>
<path d="M82.6715 32.1906C95.2161 33.2869 104.227 45.2322 102.758 58.8146C101.289 72.3971 89.8868 82.5541 77.3423 81.4578C64.7977 80.3614 55.7865 68.4162 57.2559 54.8337C58.7252 41.2512 70.127 31.0918 82.6715 32.1906ZM77.6298 78.7973C88.8195 79.7767 98.9906 70.716 100.302 58.6002C101.613 46.4844 93.5737 35.8304 82.384 34.8535C71.1943 33.8765 61.0231 42.9347 59.7121 55.0505C58.4012 67.1663 66.4401 77.8204 77.6298 78.7973Z" fill="url(#paint4_linear_9_572)"/>
<path d="M81.4494 43.6404C88.1902 44.2294 93.0151 50.6276 92.2253 57.9249C91.4355 65.2221 85.3307 70.6612 78.5899 70.0696C71.849 69.4806 67.0241 63.0851 67.8139 55.7878C68.6037 48.4905 74.7111 43.0488 81.4494 43.6404Z" fill="url(#paint5_linear_9_572)"/>
<path d="M83.8583 21.3109C101.968 22.8941 114.977 40.1356 112.854 59.7427C110.733 79.3499 94.2734 94.0139 76.1633 92.4308C58.0532 90.8476 45.0447 73.6062 47.168 53.999C49.2887 34.3919 65.7482 19.7278 83.8583 21.3109ZM76.4422 89.8662C93.2453 91.3358 108.519 77.7306 110.487 59.5361C112.456 41.3442 100.385 25.345 83.5819 23.8755C66.7789 22.406 51.505 36.0111 49.5367 54.2056C47.5683 72.3975 59.6392 88.3968 76.4422 89.8662Z" fill="url(#paint6_linear_9_572)"/>
<path d="M83.7272 22.5227C101.22 24.0519 113.785 40.7058 111.734 59.6448C109.686 78.5838 93.7873 92.7481 76.2944 91.2189C58.8014 89.6897 46.2362 73.0358 48.2872 54.0968C50.3356 35.1579 66.2343 20.9935 83.7272 22.5227ZM76.5639 88.7418C92.7943 90.1612 107.548 77.0197 109.449 59.4453C111.35 41.8733 99.6907 26.4193 83.4602 24.9999C67.2298 23.5804 52.4764 36.722 50.5752 54.2964C48.6739 71.8683 60.3334 87.3224 76.5639 88.7418Z" fill="url(#paint7_linear_9_572)"/>
<path d="M28.8442 44.5332L27.2984 37.3115L10.0397 32.5188L10.9572 40.1549L5.97852 45.9901L23.7534 50.4518L28.8442 44.5332Z" fill="white"/>
<path d="M28.8442 44.5332L27.2984 37.3115L10.0397 32.5188L10.9572 40.1549L5.97852 45.9901L23.7534 50.4518L28.8442 44.5332Z" fill="url(#paint8_linear_9_572)"/>
<path d="M68.7639 108.088L62.5835 104.473L42.9058 106.381L48.6039 110.676L45.429 116.284L65.5081 113.827L68.7639 108.088Z" fill="white"/>
<path d="M68.7639 108.088L62.5835 104.473L42.9058 106.381L48.6039 110.676L45.429 116.284L65.5081 113.827L68.7639 108.088Z" fill="url(#paint9_linear_9_572)"/>
<path fill-rule="evenodd" clip-rule="evenodd" d="M17.4074 41.7395C17.6623 40.6983 18.7129 40.0609 19.754 40.3157L78.709 54.7461C79.7501 55.0009 80.3876 56.0516 80.1327 57.0927C79.8779 58.1339 78.8272 58.7713 77.7861 58.5165L18.8312 44.0861C17.79 43.8313 17.1526 42.7807 17.4074 41.7395Z" fill="url(#paint10_linear_9_572)"/>
<path fill-rule="evenodd" clip-rule="evenodd" d="M124.508 102.63C124.62 103.696 123.846 104.651 122.78 104.763L56.4218 111.708C55.3558 111.82 54.4011 111.046 54.2895 109.98C54.1779 108.914 54.9517 107.959 56.0178 107.847L122.376 100.902C123.442 100.79 124.396 101.564 124.508 102.63Z" fill="url(#paint11_linear_9_572)"/>
<path d="M68.5287 108.492L48.6086 110.658L45.7986 115.456L65.8777 112.998L68.5287 108.492Z" fill="white"/>
<path d="M68.5287 108.492L48.6086 110.658L45.7986 115.456L65.8777 112.998L68.5287 108.492Z" fill="url(#paint12_linear_9_572)"/>
<path d="M119.551 98.4828L122.339 107.005L131.973 101.637L119.551 98.4828Z" fill="#50D8D6"/>
<defs>
<linearGradient id="paint0_linear_9_572" x1="53.4486" y1="34.1443" x2="122.348" y2="95.2188" gradientUnits="userSpaceOnUse">
<stop offset="0.166667" stop-color="#F6FCFF"/>
<stop offset="1" stop-color="#AECDE8"/>
</linearGradient>
<radialGradient id="paint1_radial_9_572" cx="0" cy="0" r="1" gradientUnits="userSpaceOnUse" gradientTransform="translate(74.8983 53.7831) rotate(35.965) scale(107.15 125.016)">
<stop offset="0.250654" stop-color="#DCEFFF"/>
<stop offset="1" stop-color="#4B71CD"/>
</radialGradient>
<linearGradient id="paint2_linear_9_572" x1="105.701" y1="62.1345" x2="130.223" y2="54.0881" gradientUnits="userSpaceOnUse">
<stop stop-color="#738AC1"/>
<stop offset="1" stop-color="#DCEFFF"/>
</linearGradient>
<linearGradient id="paint3_linear_9_572" x1="103.884" y1="53.6057" x2="56.1296" y2="53.6057" gradientUnits="userSpaceOnUse">
<stop stop-color="#2E86FE"/>
<stop offset="1" stop-color="#12AFFF"/>
</linearGradient>
<linearGradient id="paint4_linear_9_572" x1="102.915" y1="53.7363" x2="57.0989" y2="53.7363" gradientUnits="userSpaceOnUse">
<stop stop-color="#2E86FE"/>
<stop offset="1" stop-color="#12AFFF"/>
</linearGradient>
<linearGradient id="paint5_linear_9_572" x1="92.31" y1="55.1986" x2="67.7292" y2="55.1986" gradientUnits="userSpaceOnUse">
<stop stop-color="#2E86FE"/>
<stop offset="1" stop-color="#12AFFF"/>
</linearGradient>
<linearGradient id="paint6_linear_9_572" x1="113.081" y1="52.4137" x2="46.9409" y2="52.4137" gradientUnits="userSpaceOnUse">
<stop stop-color="#2E86FE"/>
<stop offset="1" stop-color="#12AFFF"/>
</linearGradient>
<linearGradient id="paint7_linear_9_572" x1="111.954" y1="52.5655" x2="48.0679" y2="52.5655" gradientUnits="userSpaceOnUse">
<stop stop-color="#2E86FE"/>
<stop offset="1" stop-color="#12AFFF"/>
</linearGradient>
<linearGradient id="paint8_linear_9_572" x1="-0.877468" y1="33.033" x2="32.8438" y2="58.7557" gradientUnits="userSpaceOnUse">
<stop stop-color="#13B8FF"/>
<stop offset="1" stop-color="#4FD8D5"/>
</linearGradient>
<linearGradient id="paint9_linear_9_572" x1="35.1525" y1="104.812" x2="57.3676" y2="133.908" gradientUnits="userSpaceOnUse">
<stop stop-color="#13B8FF"/>
<stop offset="1" stop-color="#4FD8D5"/>
</linearGradient>
<linearGradient id="paint10_linear_9_572" x1="-0.874126" y1="42.2009" x2="34.0534" y2="4.8569" gradientUnits="userSpaceOnUse">
<stop stop-color="#13B8FF"/>
<stop offset="1" stop-color="#4FD8D5"/>
</linearGradient>
<linearGradient id="paint11_linear_9_572" x1="33.5207" y1="102.832" x2="45.1392" y2="73.782" gradientUnits="userSpaceOnUse">
<stop stop-color="#13B8FF"/>
<stop offset="1" stop-color="#4FD8D5"/>
</linearGradient>
<linearGradient id="paint12_linear_9_572" x1="38.9832" y1="108.692" x2="50.0001" y2="130.205" gradientUnits="userSpaceOnUse">
<stop stop-color="#13B8FF"/>
<stop offset="1" stop-color="#4FD8D5"/>
</linearGradient>
</defs>
</svg>
