<svg width="285" height="36" viewBox="0 0 285 36" fill="none" xmlns="http://www.w3.org/2000/svg">
<path d="M19.0736 12.4144H0.5V36.0006H8.68509V27.3101H19.0736C21.3348 27.3101 23.1672 25.5037 23.1672 23.2747V16.4476C23.1672 14.2186 21.3348 12.4122 19.0736 12.4122V12.4144ZM14.9799 22.6551C14.9799 23.1696 14.5579 23.5857 14.0359 23.5857H8.68509V16.1367H14.0359C14.5579 16.1367 14.9799 16.5527 14.9799 17.0673V22.6529V22.6551Z" fill="#0C2780"/>
<path d="M25.6838 12.4144V29.4822C25.6838 32.2148 27.1187 34.6167 29.2866 35.9984H33.8689V12.4122H25.6838V12.4144Z" fill="#0C2780"/>
<path d="M50.239 18V31.3433C50.239 31.8578 49.817 32.2739 49.295 32.2739H45.5168C44.9948 32.2739 44.5728 31.8578 44.5728 31.3433V18H36.3877V31.9651C36.3877 34.1941 38.2202 36.0005 40.4813 36.0005H58.4263V18.0022H50.2413L50.239 18Z" fill="#0C2780"/>
<path d="M65.0365 18C62.7754 18 60.9429 19.8064 60.9429 22.0354V26.3795C60.9429 28.6085 62.7754 30.4149 65.0365 30.4149H72.593C73.115 30.4149 73.537 30.8309 73.537 31.3455V31.9651C73.537 32.4797 73.115 32.8957 72.593 32.8957H61.5737V35.9983H76.9999C79.261 35.9983 81.0935 34.1919 81.0935 31.9629V27.6188C81.0935 25.3898 79.261 23.5834 76.9999 23.5834H69.4434C68.9214 23.5834 68.4994 23.1674 68.4994 22.6528C68.4994 22.1383 68.9214 21.7223 69.4434 21.7223H79.8319V17.9978H65.0365V18Z" fill="#0C2780"/>
<path d="M79.832 14.2754H72.9063V10.551H67.8687V3.72386H72.9063V-0.000610352H79.832V3.72386H84.8696V10.551H79.832V14.2754Z" fill="#0C2780"/>
<path d="M91.7952 22.344V17.9999H103.128V14.2755H83.6101V26.0685H95.258C95.78 26.0685 96.202 26.4845 96.202 26.9991V31.3432C96.202 31.8578 95.78 32.2738 95.258 32.2738H83.6101V35.9983H100.296C102.557 35.9983 104.389 34.1919 104.389 31.9629V26.3772C104.389 24.1483 102.557 22.3419 100.296 22.3419L91.7952 22.344Z" fill="#0C2780"/>
<path d="M124.851 14.2755H111C108.739 14.2755 106.906 16.0819 106.906 18.3108V31.9651C106.906 34.194 108.739 36.0004 111 36.0004H124.851C127.112 36.0004 128.945 34.194 128.945 31.9651V18.3108C128.945 16.0819 127.112 14.2755 124.851 14.2755ZM120.758 31.3432C120.758 31.8578 120.336 32.2738 119.814 32.2738H116.035C115.513 32.2738 115.091 31.8578 115.091 31.3432V18.9305C115.091 18.4159 115.513 17.9999 116.035 17.9999H119.814C120.336 17.9999 120.758 18.4159 120.758 18.9305V31.3432Z" fill="#0C2780"/>
<path d="M149.406 14.2755H135.555C133.294 14.2755 131.461 16.0819 131.461 18.3108V31.9651C131.461 34.194 133.294 36.0004 135.555 36.0004H149.406C151.668 36.0004 153.5 34.194 153.5 31.9651V18.3108C153.5 16.0819 151.668 14.2755 149.406 14.2755ZM145.315 31.3432C145.315 31.8578 144.893 32.2738 144.371 32.2738H140.593C140.071 32.2738 139.649 31.8578 139.649 31.3432V18.9305C139.649 18.4159 140.071 17.9999 140.593 17.9999H144.371C144.893 17.9999 145.315 18.4159 145.315 18.9305V31.3432Z" fill="#0C2780"/>
<path d="M161.5 24.3063C161.5 18.7834 165.977 14.3063 171.5 14.3063H274.5C280.023 14.3063 284.5 18.7834 284.5 24.3063V26C284.5 31.5229 280.023 36 274.5 36H161.5V24.3063Z" fill="#0C2780"/>
<path fill-rule="evenodd" clip-rule="evenodd" d="M207.586 21.8413C207.083 21.8413 206.685 22.1358 206.392 22.7249C206.104 23.3139 205.96 24.133 205.96 25.1822C205.96 27.3664 206.53 28.4586 207.669 28.4586C208.168 28.4586 208.691 28.2995 209.237 27.9813V29.5421C208.777 29.8474 208.188 30 207.47 30C206.408 30 205.591 29.5786 205.019 28.7359C204.451 27.8888 204.167 26.7 204.167 25.1693C204.167 23.6386 204.46 22.4454 205.044 21.5897C205.634 20.7341 206.451 20.3063 207.495 20.3063C207.839 20.3063 208.168 20.3536 208.482 20.4482C208.8 20.5428 209.14 20.7083 209.501 20.9448L208.921 22.3701C208.727 22.2369 208.521 22.1165 208.302 22.009C208.082 21.8972 207.844 21.8413 207.586 21.8413ZM234.461 27.2718C234.461 28.1533 234.238 28.8283 233.791 29.297C233.348 29.7657 232.707 30 231.869 30C231.047 30 230.349 29.8388 229.772 29.5163V27.7814C230.478 28.2414 231.125 28.4715 231.714 28.4715C232.049 28.4715 232.301 28.379 232.468 28.1941C232.64 28.0092 232.726 27.7577 232.726 27.4395C232.726 27.1256 232.625 26.8397 232.423 26.5817C232.221 26.3194 231.888 26.0292 231.424 25.711C231.019 25.4316 230.712 25.165 230.501 24.9113C230.295 24.6533 230.134 24.3652 230.018 24.047C229.906 23.7289 229.85 23.3591 229.85 22.9377C229.85 22.1294 230.073 21.4887 230.521 21.0157C230.972 20.5428 231.576 20.3063 232.333 20.3063C233.055 20.3063 233.75 20.5084 234.416 20.9125L233.836 22.3185C233.629 22.1982 233.412 22.0907 233.184 21.9961C232.961 21.9015 232.72 21.8542 232.462 21.8542C232.178 21.8542 231.959 21.9488 231.804 22.138C231.654 22.3228 231.578 22.5765 231.578 22.899C231.578 23.2172 231.669 23.4945 231.849 23.731C232.034 23.9675 232.354 24.2362 232.81 24.5372C233.425 24.95 233.853 25.3714 234.094 25.8013C234.339 26.2313 234.461 26.7215 234.461 27.2718ZM260.401 22.7249C260.693 22.1358 261.091 21.8413 261.594 21.8413C261.852 21.8413 262.09 21.8972 262.31 22.009C262.529 22.1165 262.735 22.2369 262.929 22.3701L263.509 20.9448C263.148 20.7083 262.808 20.5428 262.49 20.4482C262.176 20.3536 261.848 20.3063 261.504 20.3063C260.459 20.3063 259.642 20.7341 259.053 21.5897C258.468 22.4454 258.176 23.6386 258.176 25.1693C258.176 26.7 258.459 27.8888 259.027 28.7359C259.599 29.5786 260.416 30 261.478 30C262.196 30 262.785 29.8474 263.245 29.5421V27.9813C262.699 28.2995 262.176 28.4586 261.678 28.4586C260.538 28.4586 259.969 27.3664 259.969 25.1822C259.969 24.133 260.113 23.3139 260.401 22.7249ZM274.5 27.2718C274.5 28.1533 274.276 28.8283 273.829 29.297C273.386 29.7657 272.746 30 271.907 30C271.086 30 270.387 29.8388 269.811 29.5163V27.7814C270.516 28.2414 271.163 28.4715 271.753 28.4715C272.088 28.4715 272.339 28.379 272.507 28.1941C272.679 28.0092 272.765 27.7577 272.765 27.4395C272.765 27.1256 272.664 26.8397 272.462 26.5817C272.26 26.3194 271.927 26.0292 271.462 25.711C271.058 25.4316 270.751 25.165 270.54 24.9113C270.334 24.6533 270.172 24.3652 270.056 24.047C269.944 23.7289 269.889 23.3591 269.889 22.9377C269.889 22.1294 270.112 21.4887 270.559 21.0157C271.011 20.5428 271.615 20.3063 272.372 20.3063C273.094 20.3063 273.788 20.5084 274.455 20.9125L273.874 22.3185C273.668 22.1982 273.451 22.0907 273.223 21.9961C272.999 21.9015 272.759 21.8542 272.501 21.8542C272.217 21.8542 271.998 21.9488 271.843 22.138C271.692 22.3228 271.617 22.5765 271.617 22.899C271.617 23.2172 271.707 23.4945 271.888 23.731C272.073 23.9675 272.393 24.2362 272.849 24.5372C273.464 24.95 273.892 25.3714 274.132 25.8013C274.378 26.2313 274.5 26.7215 274.5 27.2718ZM268.831 29.8712H264.581V20.4419H268.831V21.9576H266.335V24.202H268.65V25.7241H266.335V28.3362H268.831V29.8712ZM254.822 29.8712V20.4419H256.473V29.8712H254.822ZM253.675 20.4419H251.908L250.689 26.2014C250.551 26.8292 250.437 27.5322 250.347 28.3104C250.239 27.3946 250.13 26.6916 250.018 26.2014L248.786 20.4419H247.019L249.225 29.8712H251.456L253.675 20.4419ZM243 26.2014V29.8712H241.246V20.4419H243.542C244.514 20.4419 245.229 20.672 245.689 21.132C246.154 21.5921 246.386 22.2951 246.386 23.241C246.386 24.4321 245.984 25.2641 245.18 25.737L246.992 29.8712H245.115L243.626 26.2014H243ZM243 24.6922H243.451C243.864 24.6922 244.161 24.5761 244.342 24.3439C244.522 24.1074 244.612 23.757 244.612 23.2926C244.612 22.8111 244.516 22.4692 244.322 22.2672C244.133 22.0608 243.838 21.9576 243.439 21.9576H243V24.6922ZM235.621 29.8712H239.871V28.3362H237.376V25.7241H239.691V24.202H237.376V21.9576H239.871V20.4419H235.621V29.8712ZM221.587 20.4419V29.8712H225.773V28.3362H223.341V20.4419H221.587ZM218.995 29.8712L218.453 27.4913H215.996L215.454 29.8712H213.7L216.035 20.4032H218.415L220.756 29.8712H218.995ZM218.124 25.9369L217.621 23.7441C217.591 23.6108 217.522 23.2775 217.415 22.7444C217.312 22.2069 217.249 21.8479 217.228 21.6673C217.172 22.0371 217.101 22.4455 217.015 22.8927C216.929 23.3356 216.705 24.3503 216.344 25.9369H218.124ZM210.887 20.4419V29.8712H212.538V20.4419H210.887ZM200.652 29.8712H202.793V20.4419H201.181V25.5887C201.181 26.2122 201.222 26.7496 201.303 27.2011H201.232L198.343 20.4419H196.189V29.8712H197.814V24.718C197.814 24.1203 197.76 23.5614 197.653 23.0411H197.737L200.652 29.8712ZM193.596 29.8712L193.054 27.4913H190.597L190.055 29.8712H188.301L190.635 20.4032H193.015L195.356 29.8712H193.596ZM192.725 25.9369L192.222 23.7441C192.192 23.6108 192.123 23.2775 192.016 22.7444C191.912 22.2069 191.85 21.8479 191.829 21.6673C191.773 22.0371 191.702 22.4455 191.616 22.8927C191.53 23.3356 191.306 24.3503 190.945 25.9369H192.725ZM185.328 29.8712H187.469V20.4419H185.857V25.5887C185.857 26.2122 185.897 26.7496 185.979 27.2011H185.908L183.019 20.4419H180.865V29.8712H182.49V24.718C182.49 24.1203 182.436 23.5614 182.329 23.0411H182.413L185.328 29.8712ZM177.221 29.8712V20.4419H178.872V29.8712H177.221ZM171.5 29.8712H173.241V26.0918H175.557V24.5761H173.241V21.9576H175.724V20.4419H171.5V29.8712Z" fill="white"/>
</svg>
