<svg width="152" height="152" viewBox="0 0 152 152" fill="none" xmlns="http://www.w3.org/2000/svg">
<path d="M98.0195 56.3056C95.8194 56.1006 92.2377 57.9869 89.8325 59.2293C95.3862 56.7188 94.126 65.4585 97.2489 70.0525C98.3596 71.6878 90.1273 80.6623 81.6471 89.2354L66.1795 84.352L55.606 71.8167C49.9967 65.3057 46.0733 68.9425 40.4255 71.8457C43.4673 70.1465 65.1781 96.3228 69.3178 101.369C66.9425 103.662 64.1849 105.766 63.6765 106.291C64.2402 106.028 68.8612 105.022 71.1888 102.955C71.3989 102.769 71.6224 102.585 71.8315 102.369C72.5065 101.673 104.475 71.3086 105.073 70.5743C106.243 69.2038 106.824 67.3892 106.812 65.6003C106.863 60.8953 102.89 56.1903 98.0153 56.3056H98.0195Z" fill="url(#paint0_radial_9_565)"/>
<path d="M88.808 66.6299C88.6467 66.7015 88.4809 66.7821 88.3062 66.8762C88.454 66.809 88.6243 66.7284 88.808 66.6299Z" fill="#6B4A4A"/>
<path fill-rule="evenodd" clip-rule="evenodd" d="M120.959 50.2695L120.947 47.9183L116.822 47.4133L116.834 49.7606L114.075 49.4213L114.103 54.1079L116.866 54.4432L116.882 56.7984L121.007 57.3033L120.991 54.9521L123.75 55.2914L123.718 50.6048L120.959 50.2695ZM142.717 60.1148L142.741 63.4364L146.637 63.9177L146.68 70.2375L142.78 69.7562L142.8 73.0818L137.25 72.3994L137.23 69.0777L133.33 68.5964L133.291 62.2766L137.187 62.7579L137.167 59.4362L142.717 60.1148ZM129.719 73.8397L129.762 80.5146L137.605 81.4772L137.688 94.7874L129.845 93.8249L129.888 100.508L118.169 99.0677L118.125 92.385L110.286 91.4224L110.199 78.116L118.042 79.0786L117.999 72.4038L129.719 73.8397Z" fill="url(#paint1_linear_9_565)"/>
<path fill-rule="evenodd" clip-rule="evenodd" d="M120.959 50.2695L120.947 47.9183L116.822 47.4133L116.834 49.7606L114.075 49.4213L114.103 54.1079L116.866 54.4432L116.882 56.7984L121.007 57.3033L120.991 54.9521L123.75 55.2914L123.718 50.6048L120.959 50.2695ZM142.717 60.1148L142.741 63.4364L146.637 63.9177L146.68 70.2375L142.78 69.7562L142.8 73.0818L137.25 72.3994L137.23 69.0777L133.33 68.5964L133.291 62.2766L137.187 62.7579L137.167 59.4362L142.717 60.1148ZM129.719 73.8397L129.762 80.5146L137.605 81.4772L137.688 94.7874L129.845 93.8249L129.888 100.508L118.169 99.0677L118.125 92.385L110.286 91.4224L110.199 78.116L118.042 79.0786L117.999 72.4038L129.719 73.8397Z" fill="url(#paint2_linear_9_565)"/>
<path d="M93.4216 58.7153C95.3868 58.9587 97.3605 60.0005 98.8686 61.7937C101.889 65.3801 101.923 70.5931 98.9412 73.4409L66.0588 104.843C64.6362 106.201 62.6625 106.837 60.6418 106.589C58.6168 106.342 56.6302 105.219 55.1905 103.511L39.1488 84.4904C36.1284 80.9083 36.0985 75.6952 39.0762 72.8432C40.5671 71.4171 42.528 70.8578 44.4975 71.0969C46.4669 71.336 48.4363 72.382 49.9487 74.1752L60.5221 86.7105L88.0089 60.4616C89.4998 59.0398 91.4607 58.4762 93.4302 58.7153H93.4216Z" fill="url(#paint3_radial_9_565)"/>
<path d="M66.3126 12.9489C68.4854 13.2174 70.6664 13.6121 72.8392 14.137C84.7285 17.0137 95.9587 23.646 105.045 33.151C107.348 35.5597 107.616 39.3113 105.643 41.5207C104.564 42.7291 103.043 43.2296 101.509 43.0424C100.235 42.8878 98.9494 42.2531 97.9036 41.1626C90.5145 33.4276 81.3717 28.0323 71.6958 25.6927C69.9258 25.2654 68.1518 24.944 66.3818 24.7243C58.4881 23.7559 50.7002 24.883 43.7261 28.0567C35.1855 31.9384 28.2643 38.6887 23.878 47.4165C20.4275 54.2848 18.6779 62.1174 18.7308 70.2593C18.743 72.4687 18.8895 74.6985 19.1743 76.9404C20.4927 87.4341 24.708 97.6308 31.2671 106.184C37.8262 114.732 46.4116 121.226 55.8881 124.807C59.5623 126.199 63.3016 127.122 67.0328 127.578C72.9246 128.302 78.792 127.859 84.3338 126.235C93.3831 123.586 101.126 117.91 106.55 109.964C107.604 108.421 109.321 107.73 111.079 107.945C112.141 108.076 113.219 108.539 114.171 109.345C116.69 111.481 117.361 115.225 115.673 117.699C109.008 127.464 99.4905 134.438 88.3702 137.701C81.5629 139.695 74.3528 140.24 67.1101 139.349C62.5245 138.788 57.9307 137.648 53.4142 135.948C41.7649 131.545 31.2142 123.562 23.1578 113.056C15.0973 102.55 9.91349 90.0179 8.29406 77.1235C7.94821 74.373 7.76917 71.6305 7.7529 68.9125C7.6878 58.9112 9.84025 49.2841 14.0801 40.8452C19.4714 30.1196 27.9713 21.8191 38.4691 17.0503C47.0423 13.1523 56.6124 11.7608 66.3086 12.953L66.3126 12.9489Z" fill="url(#paint4_angular_9_565)"/>
<defs>
<radialGradient id="paint0_radial_9_565" cx="0" cy="0" r="1" gradientUnits="userSpaceOnUse" gradientTransform="translate(74.5215 72.3164) rotate(109.986) scale(42.0708 44.8815)">
<stop stop-color="#ECF6FF"/>
<stop offset="1" stop-color="#4B71CD"/>
</radialGradient>
<linearGradient id="paint1_linear_9_565" x1="128.44" y1="134.229" x2="126.421" y2="60.9139" gradientUnits="userSpaceOnUse">
<stop stop-color="#2E86FE"/>
<stop offset="1" stop-color="#12B8FF"/>
</linearGradient>
<linearGradient id="paint2_linear_9_565" x1="137.326" y1="89.865" x2="132.507" y2="38.2098" gradientUnits="userSpaceOnUse">
<stop stop-color="#4FD8D5" stop-opacity="0"/>
<stop offset="1" stop-color="#4FD8D5"/>
</linearGradient>
<radialGradient id="paint3_radial_9_565" cx="0" cy="0" r="1" gradientUnits="userSpaceOnUse" gradientTransform="translate(63.9577 84.3324) rotate(76.9483) scale(74.7204 113.739)">
<stop offset="0.0833333" stop-color="#ECF6FF"/>
<stop offset="1" stop-color="#4B71CD"/>
</radialGradient>
<radialGradient id="paint4_angular_9_565" cx="0" cy="0" r="1" gradientUnits="userSpaceOnUse" gradientTransform="translate(66.3939 76.1514) rotate(-6.13143) scale(72.0662 92.1288)">
<stop offset="0.132314" stop-color="#13B8FF" stop-opacity="0"/>
<stop offset="0.666933" stop-color="#13B8FF"/>
<stop offset="0.932292" stop-color="#4FD8D5"/>
<stop offset="0.946123" stop-color="#13B8FF" stop-opacity="0"/>
</radialGradient>
</defs>
</svg>
